<?xml version="1.0" encoding="UTF-8" standalone="no"?>
<!DOCTYPE svg PUBLIC "-//W3C//DTD SVG 1.1//EN" "http://www.w3.org/Graphics/SVG/1.1/DTD/svg11.dtd">
<svg width="100%" height="100%" viewBox="0 0 512 512" version="1.1" xmlns="http://www.w3.org/2000/svg" xmlns:xlink="http://www.w3.org/1999/xlink" xml:space="preserve" xmlns:serif="http://www.serif.com/" style="fill-rule:evenodd;clip-rule:evenodd;stroke-linejoin:round;stroke-miterlimit:2;">
    <g id="Layer1">
    </g>
    <g transform="matrix(2.06913,0,0,2.06913,-271.724,-272.447)">
        <g transform="matrix(1,0,0,1,1.97242,-1.97242)">
            <path d="M225.165,238.063C225.165,238.063 172.085,268.793 164.375,354.485C164.375,354.485 171.156,345.946 233.159,319.059C233.159,319.059 256.384,311.551 265.501,288.105C265.501,288.105 250.142,263.518 225.165,238.063Z" style="fill:url(#_Linear1);"/>
        </g>
        <g transform="matrix(1,0,0,1,1,-1)">
            <path d="M226.138,237.091L218.439,242.836C252.991,261.747 257.217,302.111 257.217,302.111C264.608,294.704 266.179,287.846 266.179,287.846C266.179,287.846 251.115,262.546 226.138,237.091Z" style="fill:rgb(164,109,26);"/>
        </g>
        <path d="M307.514,240.864C307.514,240.864 316.771,229.756 334.468,215.765C334.468,215.765 365.718,172.976 313.508,153.712C313.508,153.712 277.154,144.781 271.123,185C271.123,185 272.38,204.093 307.514,240.864Z" style="fill:url(#_Linear2);"/>
        <g transform="matrix(1,0,0,1,1.50199,1.93318)">
            <path d="M270.104,184.028C270.104,184.028 246.596,160.845 213.539,131.672C213.539,131.672 155.637,166.908 198.96,211.623C198.96,211.623 246.546,258.493 253.35,269.658C253.35,269.658 266.655,289.094 272.349,311.157L270.104,184.028Z" style="fill:url(#_Linear3);"/>
        </g>
        <g transform="matrix(1,0,0,1,-3.88968,-3.88968)">
            <path d="M276.685,313.133C276.685,313.133 286.41,350.634 326.772,383.009C326.772,383.009 380.489,313.964 311.403,243.781C311.403,243.781 280.468,271.216 276.685,313.133Z" style="fill:url(#_Linear4);"/>
        </g>
        <g transform="matrix(1,0,0,1,0,-0.97242)">
            <path d="M271.123,185L272.795,312.13C272.795,312.13 271.431,282.179 309.584,240.864C309.584,240.864 272.116,202.574 271.123,185Z" style="fill:rgb(247,209,50);"/>
        </g>
    </g>
    <defs>
        <linearGradient id="_Linear1" x1="0" y1="0" x2="1" y2="0" gradientUnits="userSpaceOnUse" gradientTransform="matrix(101.126,0,0,116.422,164.375,296.274)"><stop offset="0" style="stop-color:rgb(251,224,38);stop-opacity:1"/><stop offset="1" style="stop-color:rgb(192,133,29);stop-opacity:1"/></linearGradient>
        <linearGradient id="_Linear2" x1="0" y1="0" x2="1" y2="0" gradientUnits="userSpaceOnUse" gradientTransform="matrix(72.6221,0,0,87.9967,271.123,196.865)"><stop offset="0" style="stop-color:rgb(181,122,28);stop-opacity:1"/><stop offset="1" style="stop-color:rgb(240,197,39);stop-opacity:1"/></linearGradient>
        <linearGradient id="_Linear3" x1="0" y1="0" x2="1" y2="0" gradientUnits="userSpaceOnUse" gradientTransform="matrix(89.7179,0,0,175,182.873,219.172)"><stop offset="0" style="stop-color:rgb(247,212,46);stop-opacity:1"/><stop offset="1" style="stop-color:rgb(185,127,27);stop-opacity:1"/></linearGradient>
        <linearGradient id="_Linear4" x1="0" y1="0" x2="1" y2="0" gradientUnits="userSpaceOnUse" gradientTransform="matrix(64.6929,0,0,139.455,277.136,310.592)"><stop offset="0" style="stop-color:rgb(168,110,29);stop-opacity:1"/><stop offset="1" style="stop-color:rgb(231,182,37);stop-opacity:1"/></linearGradient>
    </defs>
</svg>
