<?xml version="1.0" encoding="UTF-8" standalone="no"?>
<!DOCTYPE svg PUBLIC "-//W3C//DTD SVG 1.1//EN" "http://www.w3.org/Graphics/SVG/1.1/DTD/svg11.dtd">
<svg width="100%" height="100%" viewBox="0 0 512 512" version="1.1" xmlns="http://www.w3.org/2000/svg" xmlns:xlink="http://www.w3.org/1999/xlink" xml:space="preserve" xmlns:serif="http://www.serif.com/" style="fill-rule:evenodd;clip-rule:evenodd;stroke-linejoin:round;stroke-miterlimit:2;">
    <g id="Layer1">
    </g>
    <g transform="matrix(1.96329,0,0,1.96329,-243.776,-246.595)">
        <path d="M307.514,240.864C307.514,240.864 316.771,229.756 334.468,215.765C334.468,215.765 365.718,172.976 313.508,153.712C313.508,153.712 277.154,144.781 271.123,185C271.123,185 272.38,204.093 307.514,240.864Z" style="fill:rgb(212,161,33);"/>
        <g transform="matrix(1,0,0,1,1,-1)">
            <path d="M225.165,238.063C225.165,238.063 172.085,268.793 164.375,354.485C164.375,354.485 171.156,345.946 233.159,319.059C233.159,319.059 256.384,311.551 265.501,288.105C265.501,288.105 250.142,263.518 225.165,238.063Z" style="fill:rgb(213,158,31);"/>
        </g>
        <path d="M271.123,185L272.591,309.583C272.591,309.583 276.458,321.816 277.975,322.094C277.975,322.094 269.361,282.179 307.514,240.864C307.514,240.864 272.116,202.574 271.123,185Z" style="fill:rgb(247,209,50);"/>
        <path d="M277.975,322.094C277.975,322.094 283.043,349.686 320.005,380.319C320.005,380.319 376.599,311.047 307.514,240.864C307.514,240.864 271.213,278.155 277.975,322.094Z" style="fill:rgb(196,140,31);"/>
        <path d="M271.004,201.136C271.004,201.136 246.596,160.845 213.539,131.672C213.539,131.672 155.637,166.908 198.96,211.623C198.96,211.623 246.546,258.493 253.35,269.658C253.35,269.658 266.897,284.609 272.591,306.672L271.004,201.136Z" style="fill:rgb(222,175,33);"/>
    </g>
</svg>
